<svg width="40" height="40" viewBox="0 0 40 40" fill="none" xmlns="http://www.w3.org/2000/svg">
<g clip-path="url(#clip0)">
<path d="M13.9107 14.783C13.9107 14.8524 13.9107 14.9109 13.9107 14.9694C13.9107 22.275 13.9034 29.577 13.9143 36.8826C13.918 38.3993 12.8693 39.6528 11.4954 39.9379C10.4723 40.1462 9.5734 39.8757 8.79876 39.185C8.76953 39.1594 8.74029 39.1302 8.7001 39.0937C8.63068 39.1521 8.5649 39.2106 8.49548 39.2691C6.79273 40.7236 4.24226 39.9233 3.61378 37.8255C3.52243 37.5222 3.48589 37.1896 3.48589 36.868C3.47492 33.8858 3.48223 30.9073 3.48223 27.9251C3.48223 27.8483 3.48223 27.7716 3.48223 27.6875C3.30684 27.7277 3.14972 27.7716 2.98895 27.7972C1.64063 28.0055 0.336165 27.0955 0.0803873 25.7579C0.0292318 25.4911 0.00730794 25.2133 0.00730794 24.9429C0 21.4454 0.00365397 17.9589 0 14.4724C0 13.3138 0.325203 12.2686 1.056 11.3659C1.87814 10.3499 2.94145 9.73594 4.24957 9.60803C4.89266 9.5459 5.54307 9.56782 6.18982 9.57879C6.52234 9.5861 6.74523 9.79441 6.89139 10.0904C7.46506 11.2416 8.03873 12.3892 8.61606 13.5368C8.63798 13.5806 8.66356 13.6208 8.69645 13.6829C8.72933 13.6208 8.75856 13.5733 8.78049 13.5258C9.35051 12.3856 9.92418 11.2453 10.4905 10.1051C10.6732 9.73959 10.9546 9.56052 11.3602 9.56417C12.6245 9.56782 13.8887 9.56417 15.153 9.56417C17.9081 9.56417 20.6668 9.56052 23.4219 9.56417C24.4597 9.56417 25.2489 10.0247 25.7568 10.9237C26.6046 12.4294 25.7203 14.3591 24.0285 14.7136C23.8093 14.7611 23.5754 14.772 23.3489 14.772C20.2686 14.7757 17.1883 14.7757 14.108 14.7757C14.0495 14.783 13.991 14.783 13.9107 14.783ZM12.1787 25.4436C12.1787 21.6172 12.1787 17.7908 12.1823 13.968C12.1823 13.8072 12.2225 13.6281 12.2993 13.4856C12.471 13.164 12.767 13.0434 13.1324 13.0434C16.5379 13.047 19.9434 13.047 23.3489 13.047C23.411 13.047 23.4768 13.047 23.5389 13.0434C24.0468 12.9959 24.3683 12.6231 24.3427 12.1188C24.3208 11.6473 23.9481 11.3038 23.4548 11.3038C19.6328 11.3038 15.8144 11.3038 11.9923 11.3001C11.8864 11.3001 11.8352 11.3294 11.7841 11.428C11.024 12.9557 10.2603 14.4797 9.50032 16.0036C9.33224 16.3399 9.07281 16.5336 8.69279 16.5299C8.31643 16.5263 8.06066 16.3362 7.89623 16.0036C7.5016 15.2069 7.10332 14.4139 6.70503 13.6208C6.33964 12.8862 5.97424 12.1517 5.60153 11.4207C5.57596 11.3732 5.51749 11.3074 5.4773 11.3111C5.06806 11.3184 4.6515 11.3038 4.24957 11.3623C2.86106 11.5596 1.7466 12.857 1.7466 14.264C1.74294 17.9223 1.74294 21.577 1.7466 25.2353C1.7466 25.5861 1.91103 25.8529 2.22527 26.0027C2.54682 26.1562 2.86471 26.1233 3.15338 25.9077C3.41281 25.7104 3.48589 25.4326 3.48223 25.122C3.47858 22.3042 3.48223 19.4902 3.48223 16.6724C3.48223 16.6103 3.47858 16.5445 3.48223 16.4824C3.51877 15.8575 4.13264 15.4628 4.69535 15.7149C5.05709 15.8757 5.22152 16.1754 5.22152 16.5665C5.22152 23.3129 5.22152 30.0594 5.22152 36.8095C5.22152 36.9411 5.22518 37.0763 5.2471 37.2042C5.35307 37.873 5.95232 38.3152 6.66849 38.2604C7.31159 38.2129 7.8268 37.6464 7.8268 36.9886C7.8268 33.9516 7.8268 30.9182 7.8268 27.8812C7.8268 27.8483 7.8268 27.8191 7.8268 27.7862C7.84873 27.1759 8.49182 26.7592 9.03992 27.0078C9.40532 27.1722 9.56975 27.4756 9.56975 27.8739C9.56975 30.9109 9.56975 33.9443 9.56975 36.9813C9.56975 37.8036 10.3188 38.4102 11.1263 38.2421C11.7694 38.1069 12.1787 37.5952 12.1787 36.9155C12.1787 33.0854 12.175 29.2663 12.1787 25.4436Z" fill="#5C62E3"/>
<path d="M23.0456 27.8228C20.5682 27.8228 18.12 27.8228 15.6645 27.8228C15.6645 27.2453 15.6645 26.6789 15.6645 26.0941C23.1881 26.0941 30.7116 26.0941 38.2461 26.0941C38.2461 18.5509 38.2461 11.0224 38.2461 3.47922C30.4302 3.47922 22.618 3.47922 14.7949 3.47922C14.7949 2.89448 14.7949 2.32436 14.7949 1.73961C17.6852 1.73961 20.5718 1.73961 23.4767 1.73961C23.4767 1.15853 23.4767 0.584749 23.4767 0.00366211C24.0614 0.00366211 24.6314 0.00366211 25.2087 0.00366211C25.2087 0.57744 25.2087 1.14756 25.2087 1.73596C25.2745 1.73596 25.3329 1.73596 25.3914 1.73596C29.9369 1.73596 34.4825 1.73596 39.028 1.73596C39.6419 1.73596 40 2.09046 40 2.70078C40 10.7556 40 18.8068 40 26.8616C40 27.355 39.7588 27.6912 39.324 27.7972C39.229 27.8191 39.1267 27.8191 39.0244 27.8191C34.6286 27.8191 30.2329 27.8191 25.8372 27.8191C25.7824 27.8191 25.7312 27.8191 25.6472 27.8191C27.244 31.0169 28.8298 34.1891 30.4302 37.3833C30.3681 37.3869 30.3279 37.3906 30.2841 37.3906C29.8017 37.3906 29.3158 37.3869 28.8334 37.3943C28.7238 37.3943 28.6763 37.354 28.6288 37.2627C27.2294 34.4559 25.8262 31.6528 24.4231 28.8497C24.4012 28.8059 24.3793 28.762 24.3464 28.6999C24.3135 28.762 24.2843 28.8095 24.2623 28.857C22.8629 31.6528 21.4634 34.4523 20.0676 37.2517C20.0128 37.3614 19.9543 37.4016 19.8301 37.3979C19.366 37.3906 18.8983 37.3943 18.4342 37.3943C18.3867 37.3943 18.3356 37.3943 18.2589 37.3943C19.8593 34.1964 21.4451 31.0242 23.0456 27.8228Z" fill="#5C62E3"/>
<path d="M8.69269 -1.44606e-07C11.0714 -0.0109641 13.0409 1.95523 13.0446 4.34171C13.0482 6.72453 11.0933 8.68707 8.7073 8.69804C6.32126 8.70535 4.35177 6.73915 4.34812 4.34902C4.34447 1.96254 6.29934 0.0109638 8.69269 -1.44606e-07ZM8.69269 6.95477C10.1433 6.95843 11.298 5.80722 11.3016 4.35633C11.3053 2.92736 10.1579 1.74692 8.75846 1.73961C7.25302 1.73595 6.09837 2.85793 6.08741 4.3344C6.08375 5.7926 7.23475 6.95112 8.69269 6.95477Z" fill="#5C62E3"/>
<path d="M8.69283 6.95479C7.23124 6.95114 6.08024 5.79262 6.0912 4.33442C6.09851 2.85794 7.25682 1.73597 8.76226 1.73963C10.1617 1.74328 11.3091 2.92373 11.3054 4.35635C11.2981 5.80724 10.1435 6.95845 8.69283 6.95479Z" fill="white"/>
<path d="M36.4772 7.93388C34.542 9.87602 32.5791 11.8459 30.63 13.8019C29.1665 12.3384 27.696 10.861 26.2394 9.39049C26.9469 8.68299 27.6821 7.94775 28.4243 7.20558C29.1457 7.92694 29.8809 8.66218 30.63 9.4113C31.8647 8.16278 33.0785 6.92813 34.2854 5.71429C35.0414 6.48421 35.7698 7.21945 36.4772 7.93388Z" fill="#5C62E3"/>
<path d="M30.6022 24.3103C29.1456 22.8468 27.6751 21.3763 26.2185 19.9127C26.9399 19.1914 27.6751 18.4631 28.4104 17.7278C29.1178 18.4353 29.8531 19.1706 30.6091 19.9266C31.8646 18.6573 33.0854 17.4226 34.2923 16.2019C35.0553 16.9648 35.7836 17.6931 36.4911 18.4006C34.5489 20.3567 32.579 22.3265 30.6022 24.3103Z" fill="#5C62E3"/>
</g>
<defs>
<clipPath id="clip0">
<rect width="40" height="40" fill="white"/>
</clipPath>
</defs>
</svg>
