<svg width="44" height="37" viewBox="0 0 44 37" fill="none" xmlns="http://www.w3.org/2000/svg">
<path d="M44 0V6.3231C41.5638 6.98176 39.7037 7.90387 38.4198 9.08945C37.1687 10.275 36.1646 11.7899 35.4074 13.6342C34.6502 15.4455 34.2716 17.6684 34.2716 20.3031C37.3663 20.3031 39.6543 21.1923 41.1358 22.9706C42.6502 24.749 43.4074 26.6426 43.4074 28.6515C43.4074 30.9898 42.5844 32.9657 40.9383 34.5794C39.2922 36.1931 37.3663 37 35.1605 37C32.2963 37 29.8436 35.7815 27.8025 33.3445C25.7613 30.8745 24.7407 27.5154 24.7407 23.267C24.7407 19.5127 25.5473 16.0053 27.1605 12.745C28.7737 9.45171 30.9794 6.65243 33.7778 4.34713C36.5761 2.0089 39.9835 0.559859 44 0ZM19.2099 0V6.3231C16.7737 6.98176 14.9136 7.90387 13.6296 9.08945C12.3786 10.275 11.3745 11.7899 10.6173 13.6342C9.86008 15.4455 9.48148 17.6684 9.48148 20.3031C12.642 20.3031 14.963 21.1923 16.4444 22.9706C17.9259 24.749 18.6667 26.6426 18.6667 28.6515C18.6667 30.9898 17.8272 32.9657 16.1481 34.5794C14.5021 36.1931 12.5926 37 10.4198 37C7.58848 37 5.1358 35.7815 3.06173 33.3445C1.02058 30.8745 0 27.5154 0 23.267C0 19.5127 0.806584 16.0053 2.41975 12.745C4.03292 9.45171 6.22222 6.65243 8.98765 4.34713C11.786 2.0089 15.1934 0.559859 19.2099 0Z" fill="#A3A3A3" fill-opacity="0.28"/>
</svg>
