<svg width="32" height="32" viewBox="0 0 32 32" fill="none" xmlns="http://www.w3.org/2000/svg">
<path d="M7.74184 10.324V14.9665H12.3844V10.324H7.74184ZM11.3576 13.9397H8.77491V11.357H11.3576V13.9397Z" fill="#5C62E3"/>
<path d="M13.4174 10.324V14.9665H18.0599V10.324H13.4174ZM17.0332 13.9397H14.4505V11.357H17.0332V13.9397Z" fill="#5C62E3"/>
<path d="M19.0992 10.324V14.9665H23.7417V10.324H19.0992ZM22.7087 13.9334H20.126V11.3507H22.7087V13.9334Z" fill="#5C62E3"/>
<path d="M2.06625 16V20.6425H6.70877V16H2.06625ZM5.682 19.6157H3.09932V17.0331H5.682V19.6157Z" fill="#5C62E3"/>
<path d="M7.74184 16V20.6425H12.3844V16H7.74184ZM11.3576 19.6157H8.77491V17.0331H11.3576V19.6157Z" fill="#5C62E3"/>
<path d="M13.4174 16V20.6425H18.0599V16H13.4174ZM17.0332 19.6157H14.4505V17.0331H17.0332V19.6157Z" fill="#5C62E3"/>
<path d="M11.3575 5.15869H10.3244V6.19176H11.3575V5.15869Z" fill="#5C62E3"/>
<path d="M13.4173 5.15869H12.3843V6.19176H13.4173V5.15869Z" fill="#5C62E3"/>
<path d="M15.4834 5.15869H14.4503V6.19176H15.4834V5.15869Z" fill="#5C62E3"/>
<path d="M25.8079 17.6315V2.58268H21.6819V1.80787C21.6819 0.812598 20.8693 0 19.874 0C18.8787 0 18.0661 0.812598 18.0661 1.80787V2.58268H7.74173V1.80787C7.74173 0.812598 6.92913 0 5.93386 0C4.93858 0 4.12598 0.812598 4.12598 1.80787V2.58268H0V23.2252H17.7197C17.6126 23.7228 17.5496 24.2394 17.5496 24.7748C17.5496 28.7622 20.7937 32 24.7748 32C28.7559 32 32 28.7559 32 24.7748C32 21.1402 29.3039 18.1354 25.8079 17.6315ZM19.0992 2.58268V1.80787C19.0992 1.37953 19.4457 1.03307 19.874 1.03307C20.3024 1.03307 20.6488 1.37953 20.6488 1.80787V2.58268V5.16535H19.0992V2.58268ZM5.15906 2.58268V1.80787C5.15906 1.37953 5.50551 1.03307 5.93386 1.03307C6.3622 1.03307 6.70866 1.37953 6.70866 1.80787V2.58268V5.16535H5.15906V2.58268ZM1.03307 3.61575H4.12598V6.19843H7.74173V3.61575H18.0661V6.19843H21.6819V3.61575H24.7811V7.74803H1.03307V3.61575ZM1.03307 22.1921V8.7748H24.7748V17.5496C21.7008 17.5496 19.074 19.4835 18.0346 22.1921H1.03307ZM24.7748 30.9669C21.3606 30.9669 18.5827 28.189 18.5827 24.7748C18.5827 21.3606 21.3606 18.5827 24.7748 18.5827C28.189 18.5827 30.9669 21.3606 30.9669 24.7748C30.9669 28.189 28.189 30.9669 24.7748 30.9669Z" fill="#5C62E3"/>
<path d="M25.2912 24.7746V20.6423H24.2582V25.8077H27.8739V24.7746H25.2912Z" fill="#5C62E3"/>
</svg>
