<svg width="41" height="40" viewBox="0 0 41 40" fill="none" xmlns="http://www.w3.org/2000/svg">
<path d="M27.6246 28.9223C20.0268 35.4412 9.77741 33.9672 4.07149 27.4484C-1.66482 20.8915 -1.30012 10.9992 4.91485 4.79942C11.0462 -1.31678 20.9993 -1.62829 27.4954 4.10043C33.9231 9.77595 35.473 19.9797 28.9086 27.6231C29.1061 27.8434 29.3113 28.079 29.5316 28.2917C32.8214 31.5815 36.1189 34.8638 39.4087 38.1536C39.6138 38.3587 39.9101 38.5563 39.9709 38.7994C40.0469 39.1261 40.0545 39.62 39.857 39.8175C39.667 40.0151 39.1656 40.0378 38.8465 39.9543C38.5729 39.8783 38.3526 39.5668 38.1247 39.3389C34.6373 35.8895 31.1499 32.4249 27.6246 28.9223ZM1.73899 16.538C1.74658 24.8347 8.33385 31.4144 16.6154 31.4068C24.7602 31.3992 31.4234 24.7587 31.4158 16.6443C31.4082 8.29439 24.821 1.71473 16.4786 1.72232C8.32625 1.73752 1.72379 8.37037 1.73899 16.538Z" fill="#5C62E3"/>
<path d="M15.5363 7.4662C15.5363 6.70642 15.5363 6.00743 15.5363 5.26285C16.2353 5.26285 16.8659 5.26285 17.5953 5.26285C17.5953 5.99223 17.5953 6.72162 17.5953 7.35983C18.4539 7.77011 19.206 8.10441 19.9354 8.4995C20.2393 8.65905 20.4673 8.95536 20.7712 9.22888C20.2621 9.68475 19.7987 10.1102 19.3276 10.5357C17.6409 8.95536 14.7462 9.12251 13.6141 10.7028C12.5808 12.1388 13.1126 13.7875 14.9589 14.9804C14.4043 15.4514 13.8572 15.9225 13.2038 16.4847C11.6843 16.0289 10.7801 14.5321 10.8637 12.268C10.9473 9.91268 12.6492 8.1348 15.5363 7.4662Z" fill="#5C62E3"/>
<path d="M17.641 26.2099C17.641 26.6278 17.641 27.2052 17.641 27.8434C16.9344 27.8434 16.2734 27.8434 15.5364 27.8434C15.5364 27.2356 15.5364 26.6354 15.5364 26.1795C14.2676 25.5793 13.1279 25.0398 11.8515 24.432C12.5049 23.7786 12.9683 23.3151 13.4546 22.8213C14.8298 24.0597 16.4101 24.1889 18.1044 23.8394C19.5328 23.5431 20.2926 22.7529 20.4977 21.3017C20.6801 20.0177 20.1482 19.0224 18.925 18.369C18.7274 18.2626 18.5299 18.1639 18.1272 17.9587C18.6515 17.4801 19.0769 17.009 19.586 16.6519C19.7759 16.5227 20.1938 16.5607 20.4293 16.6823C23.3773 18.2398 23.5976 22.7453 20.7712 24.7131C19.8671 25.3513 18.7578 25.6856 17.641 26.2099Z" fill="#5C62E3"/>
<line x1="5.60762" y1="27.7005" x2="26.9564" y2="5.60265" stroke="#5C62E3" stroke-width="1.5"/>
</svg>
