<svg width="34" height="34" viewBox="0 0 34 34" fill="none" xmlns="http://www.w3.org/2000/svg">
<path d="M15.5122 23.3153C18.5191 23.3153 21.4574 23.3153 24.3957 23.3153C25.5353 23.3153 26.6749 23.3153 27.8145 23.3153C28.2264 23.3153 28.6521 23.3565 28.6521 23.8781C28.6521 24.4271 28.199 24.4133 27.8008 24.4133C19.6038 24.4133 11.3931 24.4133 3.19616 24.4271C2.53711 24.4271 1.87806 24.4271 1.15035 24.4271C1.15035 25.4701 1.0817 26.4583 1.17781 27.4465C1.24647 28.1876 1.96044 28.6268 2.86664 28.6268C6.12071 28.6268 9.38852 28.6268 12.6426 28.6268C18.7526 28.6268 24.8625 28.6268 30.9588 28.6268C32.373 28.6268 32.8947 28.1053 32.8947 26.6916C32.8947 25.9642 32.8947 25.2368 32.8947 24.4133C32.2769 24.4133 31.7139 24.4133 31.151 24.4133C30.7528 24.4133 30.2997 24.4408 30.286 23.8918C30.2723 23.3016 30.7528 23.3153 31.1785 23.3153C31.7277 23.3153 32.2631 23.3153 32.8947 23.3153C32.8947 23.0134 32.8947 22.7801 32.8947 22.533C32.8947 17.6059 32.8947 12.6924 32.8947 7.76524C32.8947 6.39276 32.3593 5.87122 30.9862 5.87122C30.1212 5.87122 29.2562 5.87122 28.3912 5.87122C27.9793 5.87122 27.6223 5.76143 27.6223 5.29479C27.636 4.81442 28.0068 4.75952 28.4187 4.75952C29.3798 4.77325 30.3272 4.7458 31.2883 4.77325C32.8947 4.81442 33.9794 5.89867 33.9794 7.50447C33.9932 13.9963 33.9932 20.4881 33.9794 26.9799C33.9794 28.5994 32.8261 29.6973 31.1922 29.6973C21.8007 29.6973 12.4092 29.6973 3.0314 29.6973C1.06797 29.7111 0.0107422 28.668 0.0107422 26.7191C0.0107422 20.392 0.0107422 14.0512 0.0107422 7.72406C0.0107422 5.81633 1.06797 4.77325 2.97648 4.77325C5.22824 4.77325 7.49374 4.77325 9.7455 4.77325C10.1574 4.77325 10.6105 4.77325 10.6242 5.28106C10.638 5.83005 10.1849 5.87122 9.7455 5.87122C7.49374 5.87122 5.22824 5.87122 2.97648 5.87122C1.64464 5.87122 1.12289 6.40649 1.12289 7.73779C1.12289 12.6787 1.12289 17.6196 1.12289 22.5742C1.12289 22.7938 1.13662 23.0134 1.15035 23.2742C1.65837 23.2742 2.1252 23.2742 2.63322 23.2742C2.70187 21.8331 3.20989 20.5979 4.22593 19.5959C4.3907 19.4313 4.55546 19.2254 4.74768 19.1705C4.96737 19.1156 5.33809 19.1156 5.44793 19.2528C5.55777 19.3901 5.53031 19.7744 5.40674 19.9528C5.14586 20.3234 4.70649 20.5704 4.50054 20.9547C4.12982 21.6409 3.89641 22.3958 3.55315 23.2467C7.27405 23.2467 10.789 23.2467 14.3863 23.2467C14.3863 22.2311 13.9744 21.3802 13.3291 20.6253C13.0957 20.3508 12.7936 20.1312 12.5053 19.9116C12.1895 19.6783 11.8874 19.4313 12.162 19.0195C12.4641 18.5666 12.8348 18.7999 13.1643 19.0332C14.5099 19.9665 15.2651 21.2704 15.4848 22.8899C15.4848 22.9997 15.4848 23.1095 15.5122 23.3153Z" fill="#5C62E3"/>
<path d="M11.6678 7.61379C11.6678 5.9531 11.6541 4.29241 11.6678 2.63172C11.6815 1.0122 12.6427 0.0240183 14.2628 0.0102935C17.4757 -0.00343118 20.6886 -0.00343118 23.9015 0.0102935C25.5628 0.0240183 26.5514 1.05337 26.5514 2.72779C26.5652 4.41593 26.5652 6.10407 26.5514 7.77849C26.5377 9.52153 25.4393 10.6195 23.6681 10.6332C21.43 10.647 19.2057 10.6195 16.9677 10.647C16.597 10.647 16.1713 10.8117 15.8693 11.0312C14.812 11.8136 13.796 12.6645 12.7388 13.4605C12.5466 13.5978 12.1758 13.735 12.0248 13.6527C11.8326 13.5291 11.6815 13.186 11.6815 12.939C11.6541 11.1685 11.6678 9.38428 11.6678 7.61379ZM12.7525 12.088C13.6999 11.3469 14.5374 10.7293 15.3338 10.0568C15.8006 9.65877 16.2812 9.5078 16.8853 9.52153C19.1371 9.54898 21.4026 9.54898 23.6543 9.53525C24.8626 9.53525 25.4667 8.91764 25.4805 7.72359C25.4805 6.03545 25.4942 4.34731 25.4805 2.67289C25.4805 1.69843 24.9313 1.10827 23.9701 1.10827C20.7161 1.09455 17.4483 1.09455 14.1942 1.10827C13.3154 1.10827 12.7662 1.62981 12.7662 2.50819C12.7388 5.63743 12.7525 8.78039 12.7525 12.088Z" fill="#5C62E3"/>
<path d="M21.6496 32.8118C21.6496 32.2903 21.581 31.8237 21.6771 31.3845C21.7183 31.1511 22.0341 30.9727 22.2263 30.7668C22.3911 30.9727 22.6657 31.1511 22.7068 31.3845C22.7892 31.8237 22.7343 32.2903 22.7343 32.853C23.0226 32.853 23.2835 32.853 23.5444 32.853C23.9563 32.853 24.3819 32.8667 24.3957 33.3883C24.4094 33.951 23.97 33.9373 23.5719 33.9373C20.7297 33.9373 17.8738 33.951 15.0316 33.951C13.4801 33.951 11.9286 33.9373 10.3908 33.9373C10.0063 33.9373 9.59444 33.9235 9.59444 33.4294C9.59444 32.9079 9.99261 32.8393 10.4183 32.853C10.6654 32.853 10.9125 32.853 11.2695 32.853C11.2695 32.3589 11.2146 31.8785 11.297 31.4256C11.3382 31.1786 11.6265 30.9864 11.805 30.7668C11.9835 30.9864 12.2856 31.1786 12.3268 31.4119C12.4091 31.8511 12.3542 32.304 12.3542 32.8118C15.4435 32.8118 18.5054 32.8118 21.6496 32.8118Z" fill="#5C62E3"/>
<path d="M11.8601 16.1923C11.7915 17.4961 11.3384 18.5941 10.391 19.445C9.38866 20.3371 8.27651 20.3509 7.23301 19.5411C5.92863 18.5118 5.33823 16.4942 5.9149 14.9845C6.43665 13.612 7.7273 12.6787 8.97675 12.7885C10.2674 12.8983 11.5169 14.1061 11.7777 15.506C11.8326 15.7256 11.8464 15.9864 11.8601 16.1923ZM10.7754 16.1374C10.7205 15.9178 10.6518 15.4786 10.4734 15.0943C10.1576 14.3943 9.60834 13.8865 8.81199 13.8728C7.97444 13.8453 7.42523 14.3806 7.05451 15.0806C6.43665 16.2609 6.97213 18.1275 8.12548 18.8274C8.67469 19.1568 9.18271 19.0745 9.63581 18.6765C10.3223 18.0588 10.6793 17.2765 10.7754 16.1374Z" fill="#5C62E3"/>
<path d="M25.1784 15.4099C23.4483 15.4099 21.7183 15.4099 19.9883 15.4099C19.5764 15.4099 19.1233 15.3962 19.1096 14.8884C19.0821 14.3394 19.549 14.2845 19.9883 14.2845C23.3934 14.2845 26.8123 14.2845 30.2174 14.2845C30.3272 14.2845 30.4645 14.2433 30.5606 14.2982C30.8215 14.4492 31.2471 14.6001 31.2883 14.8197C31.3707 15.2727 30.9725 15.4099 30.5744 15.4099C29.119 15.4099 27.6635 15.4099 26.2081 15.4099C25.8649 15.4099 25.5216 15.4099 25.1784 15.4099Z" fill="#5C62E3"/>
<path d="M25.2608 18.5385C26.9496 18.5385 28.6247 18.5385 30.3135 18.5385C30.4508 18.5385 30.6156 18.4973 30.7117 18.5522C30.9314 18.7032 31.1236 18.8953 31.3296 19.0738C31.1236 19.2659 30.9177 19.609 30.698 19.6228C29.6957 19.6914 28.6934 19.6639 27.7048 19.6639C25.1647 19.6639 22.6109 19.6639 20.0708 19.6639C19.9609 19.6639 19.8099 19.7051 19.7412 19.6502C19.5215 19.4718 19.3293 19.2522 19.1234 19.06C19.3293 18.8953 19.5353 18.5934 19.755 18.5797C20.4552 18.5111 21.1692 18.5522 21.8694 18.5522C22.9816 18.5385 24.1212 18.5385 25.2608 18.5385Z" fill="#5C62E3"/>
<path d="M17.1736 5.29444C17.1736 4.60821 17.1599 3.9357 17.1736 3.24946C17.1874 2.48088 17.5718 2.24756 18.2171 2.63185C19.3705 3.31808 20.5101 4.01804 21.6497 4.73173C22.2401 5.1023 22.2538 5.51404 21.6634 5.88461C20.5101 6.61202 19.343 7.31198 18.1759 8.01194C17.5581 8.38251 17.1874 8.14919 17.1736 7.40805C17.1599 6.69437 17.1736 5.9944 17.1736 5.29444ZM18.327 3.97687C18.327 4.89643 18.327 5.70619 18.327 6.63947C19.0684 6.18655 19.7549 5.77481 20.5101 5.30817C19.7412 4.84153 19.0684 4.42979 18.327 3.97687Z" fill="#5C62E3"/>
</svg>
